<?xml version="1.0" encoding="utf-8"?>
<!-- Generator: Adobe Illustrator 22.1.0, SVG Export Plug-In . SVG Version: 6.00 Build 0)  -->
<svg version="1.1"
	 id="svg8" inkscape:version="0.92.2 (5c3e80d, 2017-08-06)" sodipodi:docname="Font Awesome.svg" xmlns:cc="http://creativecommons.org/ns#" xmlns:dc="http://purl.org/dc/elements/1.1/" xmlns:inkscape="http://www.inkscape.org/namespaces/inkscape" xmlns:rdf="http://www.w3.org/1999/02/22-rdf-syntax-ns#" xmlns:sodipodi="http://sodipodi.sourceforge.net/DTD/sodipodi-0.dtd" xmlns:svg="http://www.w3.org/2000/svg"
	 xmlns="http://www.w3.org/2000/svg" xmlns:xlink="http://www.w3.org/1999/xlink" x="0px" y="0px" viewBox="0 0 75 75"
	 style="enable-background:new 0 0 75 75;" xml:space="preserve">
<sodipodi:namedview  bordercolor="#666666" borderopacity="1" fit-margin-bottom="0" fit-margin-left="0" fit-margin-right="0" fit-margin-top="0" gridtolerance="10" guidetolerance="10" id="namedview10" inkscape:current-layer="svg8" inkscape:cx="22.716763" inkscape:cy="44.704624" inkscape:pageopacity="0" inkscape:pageshadow="2" inkscape:window-height="480" inkscape:window-width="640" inkscape:zoom="11.533333" objecttolerance="10" pagecolor="#ffffff" showgrid="false">
	</sodipodi:namedview>
<g id="g6" transform="translate(37.5,259.2)">
	<g id="g4" transform="translate(0,-3.2)">
		<path id="path2" inkscape:connector-curvature="0" d="M29.1-256h-58.2c-4.6,0-8.4,3.8-8.4,8.4v58.2c0,4.6,3.8,8.4,8.4,8.4h58.2
			c4.6,0,8.4-3.8,8.4-8.4v-58.2C37.5-252.2,33.7-256,29.1-256z M21.5-208.4c0,0.7-0.6,1-1.3,1.3c-2.8,1.2-5.8,2.3-9,2.3
			c-4.5,0-6.6-2.8-12-2.8c-3.9,0-8,1.4-11.3,2.9c-0.2,0.1-0.4,0.1-0.6,0.2v7.6c0,0.3,0,0.6-0.1,0.8v0.2c-0.4,1.4-1.7,2.4-3.2,2.4
			c-1.9,0-3.4-1.5-3.4-3.4v-36.6c-1.3-1-2.2-2.6-2.2-4.4c0-3.1,2.5-5.6,5.6-5.6s5.6,2.5,5.6,5.6c0,1.8-0.8,3.4-2.2,4.4v3.1
			c0.3-0.1,0.6-0.2,0.9-0.4c3.1-1.3,6.8-2.4,10.3-2.4c3.8,0,6.8,1,10.2,2.3c0.7,0.3,1.4,0.4,2.2,0.4c3.8,0,8-2.7,9-2.7
			c0.8,0,1.5,0.6,1.5,1.3V-208.4z"/>
	</g>
</g>
</svg>
